<svg xmlns="http://www.w3.org/2000/svg" xmlns:xlink="http://www.w3.org/1999/xlink" width="1640" zoomAndPan="magnify" viewBox="0 0 1230 693.000001" height="924" preserveAspectRatio="xMidYMid meet" version="1.0"><defs><clipPath id="ee9bcb18ea"><path d="M 476.601562 207.601562 L 753.699219 207.601562 L 753.699219 484.699219 L 476.601562 484.699219 Z M 476.601562 207.601562 " clip-rule="nonzero"/></clipPath></defs><g clip-path="url(#ee9bcb18ea)"><path fill="#ffffff" d="M 615.148438 207.601562 C 538.753906 207.601562 476.601562 269.753906 476.601562 346.152344 C 476.601562 422.546875 538.753906 484.699219 615.148438 484.699219 C 691.546875 484.699219 753.699219 422.546875 753.699219 346.152344 C 753.699219 269.753906 691.546875 207.601562 615.148438 207.601562 Z M 676.796875 349.46875 C 675.910156 352.777344 673.792969 355.535156 670.835938 357.242188 L 596.917969 399.921875 C 594.972656 401.042969 592.761719 401.628906 590.511719 401.628906 C 583.445312 401.628906 577.703125 395.890625 577.703125 388.832031 L 577.703125 303.484375 C 577.703125 301.234375 578.296875 299.019531 579.417969 297.074219 C 582.816406 291.175781 590.996094 288.96875 596.910156 292.386719 L 670.828125 335.066406 C 672.78125 336.1875 674.390625 337.8125 675.511719 339.753906 C 677.226562 342.707031 677.699219 346.164062 676.796875 349.46875 Z M 676.796875 349.46875 " fill-opacity="1" fill-rule="nonzero"/></g></svg>