<svg xmlns="http://www.w3.org/2000/svg" xmlns:xlink="http://www.w3.org/1999/xlink" width="940" zoomAndPan="magnify" viewBox="0 0 705 591.000005" height="788" preserveAspectRatio="xMidYMid meet" version="1.0"><defs><clipPath id="8832bb06ed"><path d="M 234.5 177 L 470 177 L 470 412.851562 L 234.5 412.851562 Z M 234.5 177 " clip-rule="nonzero"/></clipPath></defs><g clip-path="url(#8832bb06ed)"><path fill="#ffffff" d="M 352.1875 176.878906 C 287.226562 176.878906 234.375 229.726562 234.375 294.6875 C 234.375 359.648438 287.226562 412.5 352.1875 412.5 C 417.148438 412.5 470 359.648438 470 294.6875 C 470 229.726562 417.148438 176.878906 352.1875 176.878906 Z M 381.488281 298.835938 L 362.320312 298.835938 C 362.320312 329.457031 362.320312 367.160156 362.320312 367.160156 L 333.917969 367.160156 C 333.917969 367.160156 333.917969 329.824219 333.917969 298.835938 L 320.417969 298.835938 L 320.417969 274.691406 L 333.917969 274.691406 L 333.917969 259.074219 C 333.917969 247.890625 339.234375 230.410156 362.582031 230.410156 L 383.617188 230.492188 L 383.617188 253.929688 C 383.617188 253.929688 370.828125 253.929688 368.339844 253.929688 C 365.855469 253.929688 362.324219 255.171875 362.324219 260.507812 L 362.324219 274.695312 L 383.964844 274.695312 Z M 381.488281 298.835938 " fill-opacity="1" fill-rule="nonzero"/></g></svg>