<svg xmlns="http://www.w3.org/2000/svg" xmlns:xlink="http://www.w3.org/1999/xlink" width="940" zoomAndPan="magnify" viewBox="0 0 705 591.000005" height="788" preserveAspectRatio="xMidYMid meet" version="1.0"><defs><clipPath id="9aab9c7e71"><path d="M 234.5 177 L 470.351562 177 L 470.351562 412.851562 L 234.5 412.851562 Z M 234.5 177 " clip-rule="nonzero"/></clipPath></defs><g clip-path="url(#9aab9c7e71)"><path fill="#ffffff" d="M 352.375 198.265625 C 383.84375 198.265625 387.566406 198.367188 400.019531 198.9375 C 411.492188 199.453125 417.742188 201.367188 421.929688 203.019531 C 427.40625 205.136719 431.335938 207.722656 435.46875 211.855469 C 439.601562 215.992188 442.136719 219.917969 444.304688 225.394531 C 445.90625 229.53125 447.820312 235.78125 448.386719 247.304688 C 448.957031 259.761719 449.058594 263.480469 449.058594 294.953125 C 449.058594 326.421875 448.957031 330.144531 448.386719 342.597656 C 447.871094 354.070312 445.960938 360.324219 444.304688 364.507812 C 442.1875 369.984375 439.601562 373.914062 435.46875 378.046875 C 431.335938 382.179688 427.40625 384.714844 421.929688 386.882812 C 417.796875 388.484375 411.542969 390.398438 400.019531 390.964844 C 387.566406 391.535156 383.84375 391.636719 352.375 391.636719 C 320.902344 391.636719 317.183594 391.535156 304.726562 390.964844 C 293.253906 390.449219 287.003906 388.539062 282.816406 386.882812 C 277.339844 384.765625 273.410156 382.179688 269.277344 378.046875 C 265.144531 373.914062 262.613281 369.984375 260.441406 364.507812 C 258.839844 360.375 256.925781 354.121094 256.359375 342.597656 C 255.789062 330.144531 255.6875 326.421875 255.6875 294.953125 C 255.6875 263.480469 255.789062 259.761719 256.359375 247.304688 C 256.875 235.835938 258.789062 229.582031 260.441406 225.394531 C 262.558594 219.917969 265.144531 215.992188 269.277344 211.855469 C 273.410156 207.722656 277.339844 205.191406 282.816406 203.019531 C 286.949219 201.417969 293.203125 199.503906 304.726562 198.9375 C 317.183594 198.367188 320.902344 198.265625 352.375 198.265625 M 352.375 177.027344 C 320.335938 177.027344 316.355469 177.179688 303.746094 177.75 C 291.1875 178.316406 282.609375 180.332031 275.117188 183.226562 C 267.367188 186.226562 260.804688 190.253906 254.238281 196.820312 C 247.730469 203.382812 243.699219 209.945312 240.699219 217.695312 C 237.808594 225.1875 235.792969 233.765625 235.222656 246.324219 C 234.65625 258.882812 234.5 262.914062 234.5 294.898438 C 234.5 326.941406 234.65625 330.917969 235.222656 343.527344 C 235.792969 356.085938 237.808594 364.664062 240.699219 372.15625 C 243.699219 379.90625 247.730469 386.46875 254.292969 393.035156 C 260.855469 399.597656 267.417969 403.628906 275.167969 406.625 C 282.660156 409.519531 291.242188 411.535156 303.796875 412.101562 C 316.355469 412.671875 320.386719 412.824219 352.425781 412.824219 C 384.464844 412.824219 388.445312 412.671875 401.050781 412.101562 C 413.609375 411.535156 422.1875 409.519531 429.679688 406.625 C 437.433594 403.628906 443.996094 399.597656 450.558594 393.035156 C 457.121094 386.46875 461.152344 379.90625 464.148438 372.15625 C 467.042969 364.664062 469.058594 356.085938 469.628906 343.527344 C 470.195312 330.96875 470.351562 326.941406 470.351562 294.898438 C 470.351562 262.859375 470.195312 258.882812 469.628906 246.273438 C 469.058594 233.714844 467.042969 225.136719 464.148438 217.644531 C 461.152344 209.890625 457.121094 203.328125 450.558594 196.765625 C 443.996094 190.203125 437.433594 186.171875 429.679688 183.175781 C 422.1875 180.28125 413.609375 178.265625 401.050781 177.699219 C 388.445312 177.179688 384.414062 177.027344 352.375 177.027344 " fill-opacity="1" fill-rule="nonzero"/></g><path fill="#ffffff" d="M 352.375 234.386719 C 318.9375 234.386719 291.859375 261.464844 291.859375 294.898438 C 291.859375 328.335938 318.992188 355.464844 352.425781 355.464844 C 385.859375 355.464844 412.988281 328.386719 412.988281 294.898438 C 412.9375 261.464844 385.808594 234.386719 352.375 234.386719 M 352.375 334.226562 C 330.667969 334.226562 313.097656 316.65625 313.097656 294.953125 C 313.097656 273.246094 330.667969 255.679688 352.375 255.679688 C 374.078125 255.679688 391.648438 273.246094 391.648438 294.953125 C 391.699219 316.605469 374.078125 334.226562 352.375 334.226562 " fill-opacity="1" fill-rule="nonzero"/><path fill="#ffffff" d="M 429.472656 232.011719 C 429.472656 239.8125 423.117188 246.167969 415.316406 246.167969 C 407.511719 246.167969 401.15625 239.8125 401.15625 232.011719 C 401.15625 224.207031 407.511719 217.851562 415.316406 217.851562 C 423.117188 217.851562 429.472656 224.15625 429.472656 232.011719 " fill-opacity="1" fill-rule="nonzero"/></svg>