<svg xmlns="http://www.w3.org/2000/svg" xmlns:xlink="http://www.w3.org/1999/xlink" width="940" zoomAndPan="magnify" viewBox="0 0 705 591.000005" height="788" preserveAspectRatio="xMidYMid meet" version="1.0"><defs><clipPath id="0611242c74"><path d="M 234.5 177 L 470.351562 177 L 470.351562 412.851562 L 234.5 412.851562 Z M 234.5 177 " clip-rule="nonzero"/></clipPath></defs><g clip-path="url(#0611242c74)"><path fill="#ffffff" d="M 352.425781 177 C 287.285156 177 234.5 229.785156 234.5 294.925781 C 234.5 360.066406 287.285156 412.851562 352.425781 412.851562 C 417.566406 412.851562 470.351562 360.066406 470.351562 294.925781 C 470.25 229.785156 417.460938 177 352.425781 177 Z M 420.320312 327.902344 C 418.996094 336.582031 411.4375 342.914062 402.660156 342.914062 L 302.089844 342.914062 C 293.308594 342.914062 285.753906 336.582031 284.425781 327.902344 C 283.203125 319.839844 281.976562 308.605469 281.875 294.824219 C 281.976562 281.039062 283.097656 269.910156 284.425781 261.742188 C 285.753906 253.066406 293.308594 246.734375 302.089844 246.734375 L 402.660156 246.734375 C 411.4375 246.734375 418.996094 253.066406 420.320312 261.742188 C 421.546875 269.808594 422.773438 281.039062 422.875 294.824219 C 422.773438 308.605469 421.546875 319.839844 420.320312 327.902344 Z M 420.320312 327.902344 " fill-opacity="1" fill-rule="nonzero"/></g><path fill="#ffffff" d="M 337.519531 275.730469 L 337.519531 314.019531 L 373.152344 294.925781 Z M 337.519531 275.730469 " fill-opacity="1" fill-rule="nonzero"/></svg>